<svg id="svg" version="1.1" xmlns="http://www.w3.org/2000/svg" xmlns:xlink="http://www.w3.org/1999/xlink" width="400" height="600" viewBox="0, 0, 400,600"><g id="svgg"><path id="path0" d="M0.000 300.000 L 0.000 600.000 200.000 600.000 L 400.000 600.000 400.000 300.000 L 400.000 0.000 200.000 0.000 L 0.000 0.000 0.000 300.000 M399.608 300.000 L 399.607 599.609 200.002 599.609 L 0.397 599.609 0.397 300.000 L 0.398 0.391 200.004 0.391 L 399.609 0.391 399.608 300.000 M184.222 128.289 C 184.367 128.669,183.816 128.886,182.194 129.089 C 180.969 129.242,177.870 129.879,175.308 130.505 C 172.746 131.130,170.178 131.551,169.602 131.440 C 168.809 131.287,168.737 131.317,169.304 131.565 C 170.081 131.904,163.751 134.415,161.849 134.523 C 161.383 134.549,161.085 134.652,161.185 134.753 C 161.451 135.019,155.133 137.875,154.574 137.741 C 154.314 137.679,154.250 137.707,154.432 137.804 C 154.614 137.901,153.512 138.672,151.982 139.516 C 150.453 140.360,149.003 140.928,148.759 140.778 C 148.508 140.622,148.424 140.677,148.565 140.905 C 148.701 141.126,147.849 141.946,146.672 142.727 C 145.494 143.509,144.531 144.067,144.531 143.968 C 144.531 143.869,144.064 144.220,143.493 144.749 C 142.923 145.278,142.372 145.627,142.270 145.525 C 142.167 145.423,141.734 145.783,141.307 146.326 C 140.880 146.869,140.291 147.221,139.997 147.108 C 139.703 146.995,139.504 147.058,139.555 147.248 C 139.607 147.438,138.682 148.418,137.500 149.425 C 136.318 150.432,134.736 151.817,133.984 152.502 C 132.089 154.228,131.441 154.598,131.757 153.775 C 131.896 153.415,131.818 153.125,131.583 153.125 C 131.350 153.125,131.249 153.469,131.359 153.890 C 131.505 154.450,130.758 155.514,128.572 157.859 C 111.108 176.600,102.432 197.076,101.316 222.190 C 101.164 225.606,100.911 227.950,100.726 227.659 C 100.501 227.303,100.401 227.422,100.397 228.050 C 100.393 228.553,100.563 228.846,100.781 228.711 C 100.996 228.578,101.172 228.637,101.172 228.841 C 101.172 229.046,100.897 229.319,100.561 229.448 C 100.225 229.577,100.062 229.862,100.198 230.082 C 100.333 230.302,100.608 230.380,100.808 230.257 C 101.008 230.133,101.148 230.614,101.119 231.325 C 101.081 232.242,101.016 232.362,100.896 231.738 C 100.572 230.053,100.197 230.874,100.362 232.910 C 100.508 234.717,100.561 234.821,100.804 233.789 C 100.968 233.092,101.098 234.475,101.126 237.207 C 101.154 240.037,101.022 241.797,100.781 241.797 C 100.566 241.797,100.414 242.456,100.442 243.262 L 100.493 244.727 100.781 243.359 L 101.069 241.992 101.120 243.457 C 101.149 244.263,100.996 244.922,100.781 244.922 C 100.566 244.922,100.391 245.108,100.391 245.336 C 100.391 245.563,100.566 245.641,100.781 245.508 C 101.018 245.362,101.157 245.853,101.133 246.754 C 101.098 248.074,101.059 248.132,100.781 247.266 C 100.481 246.329,100.467 246.325,100.430 247.168 C 100.380 248.276,100.507 248.659,100.879 248.535 C 101.040 248.481,101.144 250.503,101.111 253.027 C 101.064 256.520,100.985 257.150,100.781 255.664 C 100.541 253.914,100.512 254.035,100.498 256.836 C 100.488 259.035,100.573 259.614,100.785 258.789 C 100.952 258.145,101.097 262.446,101.109 268.349 C 101.120 274.251,100.984 278.844,100.806 278.555 C 100.593 278.211,100.428 278.590,100.326 279.658 C 100.138 281.636,100.654 282.725,100.884 280.834 L 101.047 279.492 101.109 280.924 C 101.144 281.712,100.989 282.418,100.766 282.492 C 100.321 282.640,100.261 283.951,100.401 290.430 C 100.466 293.442,100.580 294.318,100.781 293.359 C 100.993 292.352,101.067 292.816,101.062 295.117 C 101.056 297.737,101.010 297.958,100.781 296.484 L 100.508 294.727 100.455 297.070 C 100.418 298.711,100.516 299.238,100.781 298.828 C 101.044 298.422,101.162 299.159,101.166 301.237 C 101.170 303.272,101.015 304.295,100.684 304.429 C 100.293 304.586,100.293 304.632,100.684 304.657 C 100.952 304.674,101.172 305.127,101.172 305.664 L 101.172 306.641 195.117 306.641 L 289.063 306.641 289.081 304.980 C 289.232 291.385,289.080 217.254,288.897 215.158 C 288.001 204.878,285.555 194.310,282.283 186.580 C 281.933 185.751,281.761 184.872,281.901 184.626 C 282.042 184.381,282.017 184.306,281.846 184.460 C 281.675 184.615,281.028 183.668,280.407 182.356 C 276.403 173.889,270.165 165.144,262.360 157.057 C 260.611 155.244,259.238 153.574,259.310 153.346 C 259.382 153.117,259.317 153.052,259.167 153.202 C 258.837 153.533,253.276 148.812,253.428 148.330 C 253.487 148.142,253.387 148.080,253.206 148.192 C 253.025 148.304,251.922 147.650,250.755 146.739 C 247.357 144.087,242.106 140.758,237.487 138.326 C 235.130 137.085,233.328 135.942,233.483 135.787 C 233.638 135.632,233.463 135.622,233.094 135.763 C 232.724 135.905,232.422 135.864,232.422 135.672 C 232.422 135.481,232.114 135.301,231.738 135.273 C 230.348 135.170,221.786 131.734,222.313 131.490 C 222.609 131.353,222.459 131.314,221.979 131.403 C 221.499 131.491,219.741 131.211,218.073 130.780 C 214.192 129.777,207.788 128.561,205.273 128.351 C 202.166 128.091,189.256 128.085,187.620 128.343 C 186.802 128.472,185.658 128.396,185.077 128.173 C 184.239 127.851,184.063 127.875,184.222 128.289 M148.889 172.949 C 152.957 177.232,156.496 181.968,155.278 181.501 C 154.958 181.378,154.739 181.439,154.790 181.635 C 154.841 181.831,153.562 183.363,151.947 185.039 C 150.333 186.715,148.199 189.175,147.207 190.507 C 146.214 191.838,145.294 192.849,145.162 192.753 C 145.030 192.657,144.993 192.679,145.080 192.801 C 145.167 192.924,144.235 194.990,143.008 197.391 C 138.500 206.217,135.214 219.744,135.134 229.805 C 135.121 231.352,134.982 233.320,134.824 234.180 C 134.666 235.039,134.666 236.533,134.823 237.500 C 135.368 240.851,135.415 248.014,134.887 247.310 C 134.484 246.773,134.445 246.824,134.624 247.656 C 134.786 248.413,134.742 248.502,134.425 248.050 C 134.100 247.586,133.918 247.566,133.532 247.952 C 133.191 248.293,131.399 248.438,127.511 248.438 L 121.976 248.438 121.734 246.582 C 120.763 239.135,121.742 219.514,123.494 211.328 C 125.639 201.302,132.873 185.119,136.502 182.227 C 136.771 182.012,136.996 181.686,137.002 181.502 C 137.023 180.799,139.915 177.732,140.320 177.983 C 140.580 178.143,140.633 178.064,140.456 177.778 C 140.095 177.193,140.959 176.091,141.511 176.432 C 141.735 176.570,141.805 176.500,141.666 176.277 C 141.423 175.883,145.883 170.703,146.466 170.703 C 146.626 170.703,147.716 171.714,148.889 172.949 M100.512 251.367 C 100.514 252.656,100.587 253.137,100.674 252.434 C 100.761 251.732,100.759 250.678,100.670 250.091 C 100.581 249.504,100.509 250.078,100.512 251.367 M100.522 272.656 C 100.522 274.268,100.591 274.927,100.675 274.121 C 100.759 273.315,100.759 271.997,100.675 271.191 C 100.591 270.386,100.522 271.045,100.522 272.656 M101.058 284.859 C 100.964 285.345,100.884 285.039,100.880 284.180 C 100.875 283.320,100.952 282.923,101.050 283.296 C 101.147 283.670,101.151 284.373,101.058 284.859 M101.058 287.984 C 100.964 288.470,100.884 288.164,100.880 287.305 C 100.875 286.445,100.952 286.048,101.050 286.421 C 101.147 286.795,101.151 287.498,101.058 287.984 M101.058 291.109 C 100.964 291.595,100.884 291.289,100.880 290.430 C 100.875 289.570,100.952 289.173,101.050 289.546 C 101.147 289.920,101.151 290.623,101.058 291.109 M100.502 301.758 C 100.505 302.832,100.581 303.225,100.671 302.631 C 100.761 302.038,100.758 301.159,100.666 300.678 C 100.573 300.198,100.499 300.684,100.502 301.758 M110.443 318.784 C 103.140 320.505,101.172 324.848,101.172 339.244 C 101.172 345.869,101.054 348.029,100.684 348.179 C 100.293 348.336,100.293 348.382,100.684 348.407 C 101.299 348.446,101.393 359.974,100.781 360.352 C 100.566 360.484,100.403 360.890,100.418 361.254 C 100.440 361.792,100.508 361.770,100.781 361.133 C 101.008 360.606,101.126 361.376,101.144 363.496 C 101.162 365.506,100.996 366.830,100.684 367.167 C 100.293 367.588,100.293 367.637,100.685 367.416 C 101.069 367.199,101.165 368.330,101.127 372.632 C 101.094 376.425,100.942 378.127,100.637 378.131 C 100.375 378.135,100.410 378.273,100.725 378.473 C 101.095 378.707,101.124 378.890,100.823 379.076 C 100.585 379.223,100.393 379.640,100.397 380.004 C 100.402 380.573,100.455 380.583,100.781 380.078 C 101.335 379.221,101.299 381.454,100.742 382.495 C 100.430 383.078,100.430 383.225,100.742 383.032 C 101.002 382.872,101.172 383.085,101.172 383.571 C 101.172 384.013,100.996 384.375,100.781 384.375 C 100.566 384.375,100.391 384.913,100.391 385.570 C 100.391 386.267,100.553 386.664,100.781 386.523 C 100.996 386.391,101.172 386.556,101.172 386.891 C 101.172 387.226,101.038 387.500,100.875 387.500 C 100.711 387.500,100.556 388.025,100.530 388.667 C 100.504 389.308,100.637 389.737,100.827 389.620 C 101.017 389.503,101.172 391.068,101.172 393.108 C 101.172 395.715,101.027 396.862,100.684 396.987 C 100.303 397.124,100.297 397.337,100.656 397.946 C 101.163 398.808,101.300 403.250,100.810 402.947 C 100.642 402.843,100.522 403.263,100.545 403.880 C 100.567 404.497,100.718 404.920,100.879 404.821 C 101.040 404.722,101.172 405.179,101.172 405.836 C 101.172 406.494,100.975 407.031,100.733 407.031 C 100.448 407.031,100.482 407.261,100.831 407.692 C 101.126 408.056,101.166 408.232,100.920 408.085 C 100.674 407.938,100.375 408.071,100.256 408.381 C 100.112 408.757,100.228 408.872,100.606 408.727 C 101.055 408.555,101.172 408.923,101.172 410.505 C 101.172 411.837,101.010 412.502,100.684 412.506 C 100.353 412.510,100.384 412.645,100.781 412.926 C 101.222 413.238,101.246 413.390,100.879 413.539 C 100.610 413.648,100.393 414.030,100.397 414.388 C 100.402 414.951,100.454 414.960,100.781 414.453 C 101.086 413.982,101.161 414.044,101.166 414.769 C 101.169 415.272,100.999 415.564,100.781 415.430 C 100.566 415.297,100.391 415.374,100.391 415.602 C 100.391 415.829,100.540 416.016,100.722 416.016 C 101.237 416.016,101.182 418.501,100.660 418.833 C 100.308 419.057,100.314 419.130,100.684 419.135 C 100.980 419.138,101.172 419.678,101.172 420.508 C 101.172 421.260,101.040 421.875,100.879 421.876 C 100.718 421.876,100.547 422.447,100.499 423.145 C 100.435 424.080,100.510 424.260,100.786 423.828 C 101.087 423.356,101.161 423.413,101.166 424.121 C 101.169 424.604,100.952 425.003,100.684 425.006 C 100.357 425.010,100.389 425.139,100.781 425.397 C 101.302 425.739,101.302 425.824,100.781 426.166 C 100.319 426.469,100.309 426.552,100.732 426.557 C 101.120 426.561,101.204 426.888,101.035 427.734 C 100.903 428.395,100.967 428.906,101.182 428.906 C 101.402 428.906,101.560 430.429,101.557 432.520 C 101.552 434.997,101.431 435.949,101.172 435.547 C 100.848 435.046,100.792 435.060,100.787 435.645 C 100.778 436.660,100.923 436.920,101.465 436.860 C 101.773 436.826,101.960 437.330,101.973 438.227 C 102.002 440.339,102.309 442.692,103.157 447.316 C 103.575 449.599,103.811 451.797,103.680 452.199 C 103.478 452.819,103.512 452.841,103.903 452.344 C 104.289 451.854,104.334 451.899,104.177 452.618 C 104.074 453.091,104.120 453.531,104.280 453.595 C 104.796 453.801,106.709 460.120,106.412 460.635 C 106.254 460.909,106.273 460.998,106.454 460.833 C 106.766 460.550,107.361 461.634,108.000 463.648 C 108.214 464.323,108.162 464.474,107.794 464.246 C 107.464 464.043,107.399 464.100,107.596 464.419 C 107.758 464.681,107.978 464.809,108.084 464.702 C 108.190 464.596,109.299 466.506,110.547 468.945 C 111.795 471.385,113.628 474.636,114.619 476.168 C 115.611 477.701,116.304 479.147,116.159 479.382 C 116.012 479.619,116.074 479.698,116.298 479.559 C 116.520 479.422,117.189 480.054,117.785 480.963 C 120.361 484.898,127.903 493.220,132.228 496.902 C 134.295 498.662,134.999 499.480,134.659 499.726 C 134.328 499.966,134.382 500.009,134.835 499.865 C 135.567 499.631,136.482 500.481,136.032 500.977 C 135.872 501.153,135.965 501.169,136.237 501.012 C 136.528 500.844,137.334 501.196,138.191 501.864 C 140.443 503.621,145.309 506.820,147.979 508.300 C 149.305 509.035,150.302 509.753,150.195 509.896 C 150.088 510.039,150.100 510.086,150.222 510.000 C 150.343 509.914,152.145 510.642,154.225 511.618 C 180.269 523.838,212.551 523.963,236.287 511.935 C 237.400 511.371,238.507 511.031,238.747 511.179 C 238.996 511.333,239.075 511.273,238.930 511.039 C 238.626 510.547,239.741 510.046,240.330 510.411 C 240.559 510.552,240.638 510.493,240.506 510.280 C 240.374 510.066,241.006 509.481,241.910 508.978 C 242.815 508.476,245.394 506.837,247.643 505.335 C 249.891 503.833,251.949 502.604,252.215 502.604 C 252.482 502.604,252.619 502.473,252.520 502.313 C 252.229 501.843,255.406 499.525,255.913 499.838 C 256.173 499.999,256.267 499.953,256.130 499.731 C 255.843 499.266,262.093 493.497,262.680 493.685 C 262.903 493.757,262.959 493.688,262.804 493.534 C 262.465 493.194,267.938 487.259,268.449 487.412 C 268.647 487.471,268.715 487.369,268.602 487.186 C 268.489 487.003,268.876 486.251,269.462 485.516 C 279.332 473.148,285.582 458.843,288.136 442.773 C 288.758 438.863,288.832 433.512,288.957 383.301 C 289.044 348.482,289.233 328.125,289.469 328.125 C 289.675 328.125,289.830 327.817,289.813 327.441 C 289.794 327.029,289.704 326.952,289.584 327.249 C 289.317 327.912,288.672 327.464,288.672 326.614 C 288.672 326.238,288.076 324.940,287.347 323.730 C 286.618 322.520,286.135 321.404,286.273 321.249 C 286.411 321.095,286.341 321.072,286.117 321.199 C 285.894 321.325,284.968 320.930,284.060 320.320 C 283.115 319.685,282.620 319.137,282.903 319.038 C 283.176 318.943,282.871 318.854,282.227 318.839 C 281.582 318.825,280.176 318.701,279.102 318.564 C 277.782 318.396,276.452 318.521,275.000 318.951 C 273.818 319.301,272.557 319.612,272.197 319.643 C 271.836 319.673,271.610 319.809,271.693 319.943 C 271.905 320.287,269.422 322.086,268.945 321.934 C 268.730 321.866,268.690 321.945,268.855 322.110 C 269.228 322.483,266.839 325.000,266.111 325.000 C 265.818 325.000,265.673 325.152,265.788 325.338 C 266.075 325.803,264.664 327.026,264.261 326.661 C 264.083 326.499,264.049 326.563,264.186 326.803 C 264.487 327.331,263.145 328.639,262.729 328.224 C 262.567 328.062,262.493 328.124,262.565 328.361 C 262.725 328.891,253.198 338.972,252.240 339.284 C 251.861 339.408,251.624 339.629,251.713 339.774 C 251.802 339.920,250.817 341.094,249.525 342.383 C 248.233 343.672,247.295 344.507,247.439 344.238 C 247.584 343.970,247.516 343.750,247.289 343.750 C 247.061 343.750,246.875 344.064,246.875 344.447 C 246.875 345.317,242.850 349.350,242.395 348.936 C 242.212 348.769,242.174 348.829,242.311 349.069 C 242.448 349.309,242.205 349.826,241.771 350.219 C 241.004 350.913,240.990 350.911,241.256 350.173 C 241.407 349.756,241.402 349.530,241.244 349.671 C 241.086 349.813,240.915 350.216,240.863 350.568 C 240.733 351.455,233.543 358.608,233.073 358.318 C 232.863 358.188,232.803 358.262,232.938 358.481 C 233.251 358.988,231.883 360.258,231.449 359.864 C 231.270 359.703,231.237 359.767,231.373 360.006 C 231.681 360.545,230.333 361.832,229.886 361.427 C 229.708 361.265,229.671 361.324,229.804 361.558 C 230.111 362.098,227.213 364.963,226.768 364.559 C 226.586 364.393,226.546 364.449,226.679 364.683 C 226.986 365.223,224.088 368.088,223.643 367.684 C 223.461 367.518,223.431 367.590,223.577 367.844 C 223.824 368.275,223.219 368.926,222.559 368.939 C 222.397 368.943,222.310 369.059,222.363 369.197 C 222.542 369.657,220.996 371.080,220.591 370.829 C 220.371 370.693,220.310 370.773,220.454 371.006 C 220.701 371.406,220.078 372.051,219.434 372.064 C 219.272 372.068,219.133 372.246,219.125 372.461 C 219.097 373.127,216.302 375.763,215.892 375.509 C 215.679 375.378,215.615 375.449,215.751 375.669 C 216.064 376.175,214.695 377.446,214.261 377.052 C 214.083 376.890,214.048 376.952,214.183 377.189 C 214.318 377.427,214.014 378.011,213.507 378.487 C 212.999 378.964,212.506 379.209,212.411 379.032 C 212.315 378.856,212.286 378.918,212.345 379.171 C 212.486 379.770,211.545 380.547,211.132 380.172 C 210.956 380.013,210.922 380.076,211.057 380.312 C 211.316 380.767,207.733 384.570,207.045 384.570 C 206.823 384.570,206.628 384.746,206.613 384.961 C 206.564 385.639,205.382 386.711,204.966 386.454 C 204.746 386.318,204.683 386.395,204.825 386.625 C 205.108 387.083,202.509 389.707,201.926 389.551 C 201.726 389.497,201.606 389.594,201.660 389.766 C 201.821 390.279,198.332 394.149,197.804 394.043 C 197.536 393.989,197.288 394.121,197.253 394.336 C 197.107 395.222,196.419 396.094,195.865 396.094 C 195.540 396.094,178.163 378.975,157.249 358.052 C 113.660 314.442,116.996 317.241,110.443 318.784 M138.622 369.277 C 144.128 374.830,148.589 379.532,148.535 379.726 C 148.481 379.920,148.596 380.034,148.790 379.980 C 149.727 379.721,156.714 387.153,156.465 388.145 C 156.306 388.779,156.363 389.039,156.625 388.877 C 156.890 388.713,157.031 389.513,157.031 391.188 C 157.031 392.636,156.861 393.750,156.641 393.750 C 156.426 393.750,156.250 394.091,156.250 394.508 C 156.250 394.925,156.426 395.375,156.641 395.508 C 156.855 395.641,157.019 396.046,157.004 396.410 C 156.981 396.948,156.914 396.926,156.641 396.289 C 156.381 395.684,156.299 395.882,156.277 397.168 C 156.262 398.081,156.426 398.828,156.641 398.828 C 156.856 398.828,157.029 399.833,157.025 401.074 C 157.021 402.669,156.909 403.150,156.641 402.734 C 156.347 402.279,156.261 402.394,156.256 403.246 C 156.253 403.879,156.415 404.241,156.641 404.102 C 156.869 403.960,157.031 404.366,157.031 405.078 C 157.031 405.791,156.869 406.196,156.641 406.055 C 156.426 405.922,156.250 405.999,156.250 406.227 C 156.250 406.454,156.426 406.641,156.641 406.641 C 156.855 406.641,157.029 406.948,157.025 407.324 C 157.020 407.908,156.964 407.923,156.641 407.422 C 156.357 406.982,156.262 407.178,156.262 408.203 C 156.262 409.228,156.357 409.424,156.641 408.984 C 156.927 408.541,157.021 408.713,157.025 409.691 C 157.030 410.613,156.891 410.905,156.543 410.708 C 156.152 410.487,156.152 410.537,156.543 410.958 C 156.814 411.250,157.029 412.451,157.025 413.652 C 157.021 415.196,156.910 415.652,156.641 415.234 C 156.364 414.806,156.271 415.068,156.295 416.211 C 156.324 417.566,156.369 417.644,156.641 416.797 C 156.840 416.174,156.949 417.235,156.941 419.727 C 156.932 422.404,156.838 423.203,156.641 422.266 C 156.383 421.040,156.350 421.122,156.329 423.047 C 156.312 424.574,156.402 424.970,156.641 424.414 C 156.847 423.933,156.987 426.059,157.004 429.954 L 157.031 436.275 155.762 437.138 C 154.420 438.050,152.302 440.214,151.275 441.723 C 150.796 442.426,150.580 442.512,150.294 442.113 C 150.023 441.736,149.983 441.778,150.142 442.274 C 150.260 442.644,149.886 443.962,149.309 445.204 C 148.360 447.248,147.492 459.279,148.356 458.415 C 148.455 458.316,149.129 459.472,149.853 460.984 C 156.864 475.613,176.945 474.417,183.414 458.984 C 184.139 457.255,184.649 446.660,183.987 447.068 C 183.849 447.154,183.510 446.574,183.235 445.780 C 182.959 444.986,182.305 443.671,181.782 442.857 C 181.258 442.044,180.938 441.205,181.069 440.992 C 181.201 440.780,181.147 440.654,180.950 440.713 C 180.753 440.772,179.607 439.915,178.403 438.809 C 177.199 437.703,175.985 436.722,175.705 436.628 C 175.193 436.458,174.853 410.344,175.295 405.131 L 175.472 403.035 177.757 405.295 C 179.013 406.539,179.933 407.746,179.802 407.977 C 179.670 408.209,179.707 408.267,179.884 408.106 C 180.062 407.946,182.070 409.631,184.348 411.853 C 193.320 420.602,198.948 420.206,209.198 410.104 L 215.076 404.312 215.170 405.717 C 215.222 406.491,215.279 407.234,215.296 407.370 C 215.556 409.447,215.131 435.210,214.844 434.766 C 214.635 434.443,214.462 434.364,214.459 434.590 C 214.456 434.815,214.641 435.188,214.872 435.418 C 215.390 435.936,213.421 437.621,212.747 437.237 C 212.504 437.098,212.432 437.125,212.588 437.298 C 212.744 437.470,211.909 438.651,210.733 439.922 C 209.556 441.192,208.594 442.408,208.594 442.623 C 208.594 442.839,208.391 442.889,208.143 442.736 C 207.875 442.570,207.797 442.628,207.952 442.879 C 208.096 443.111,208.005 443.758,207.750 444.318 C 207.466 444.940,207.182 445.166,207.018 444.900 C 206.870 444.661,206.745 444.964,206.740 445.573 C 206.735 446.182,206.503 447.954,206.226 449.512 C 205.813 451.826,205.813 452.861,206.225 455.176 C 206.502 456.733,206.753 458.474,206.782 459.045 C 206.812 459.615,206.998 459.982,207.195 459.860 C 207.394 459.737,207.440 459.937,207.297 460.308 C 207.156 460.676,207.186 460.888,207.363 460.778 C 207.669 460.589,209.511 463.425,209.623 464.258 C 209.652 464.473,209.696 464.868,209.721 465.137 C 209.745 465.405,209.963 465.625,210.204 465.625 C 210.491 465.625,210.457 465.389,210.106 464.941 C 209.812 464.565,210.617 465.201,211.897 466.353 C 213.176 467.506,214.803 468.725,215.512 469.063 C 216.321 469.449,216.632 469.782,216.348 469.958 C 216.091 470.117,216.301 470.230,216.835 470.221 C 217.351 470.213,218.987 470.525,220.470 470.916 C 227.726 472.827,236.338 468.698,240.134 461.487 C 244.698 452.816,242.652 443.853,234.569 437.109 L 233.398 436.133 233.506 416.992 C 233.576 404.599,233.746 398.058,233.989 398.438 C 234.308 398.938,234.364 398.923,234.369 398.340 C 234.372 397.964,234.220 397.656,234.030 397.656 C 233.426 397.656,233.277 395.685,233.839 395.123 C 234.134 394.828,234.372 394.355,234.369 394.071 C 234.365 393.690,234.264 393.708,233.984 394.141 C 233.511 394.872,233.438 394.249,233.571 390.625 C 233.667 388.035,236.094 384.333,237.234 385.038 C 237.447 385.170,237.515 385.106,237.386 384.897 C 237.111 384.453,245.804 375.654,246.211 375.963 C 246.361 376.078,246.391 376.049,246.277 375.899 C 245.990 375.523,252.403 369.131,252.813 369.385 C 252.995 369.497,253.096 369.357,253.037 369.072 C 252.978 368.787,253.162 368.603,253.447 368.662 C 253.732 368.721,253.873 368.622,253.761 368.441 C 253.650 368.260,256.317 365.357,259.689 361.990 L 265.820 355.868 265.797 394.438 C 265.773 434.830,265.713 436.491,263.996 444.509 C 262.587 451.090,257.593 463.284,256.568 462.650 C 256.302 462.486,256.238 462.555,256.406 462.827 C 257.013 463.810,248.081 475.678,247.140 475.138 C 246.887 474.993,246.815 475.023,246.980 475.205 C 247.345 475.607,244.980 478.125,244.236 478.125 C 243.943 478.125,243.807 478.292,243.934 478.497 C 244.249 479.007,237.167 484.847,236.634 484.518 C 236.397 484.372,236.318 484.433,236.455 484.655 C 236.818 485.243,232.606 487.928,231.754 487.652 C 231.271 487.496,231.206 487.536,231.545 487.780 C 232.100 488.181,227.122 491.166,226.518 490.793 C 226.328 490.675,226.172 490.741,226.172 490.938 C 226.172 491.498,220.042 494.162,219.359 493.900 C 219.024 493.772,218.750 493.847,218.750 494.067 C 218.750 494.940,209.604 497.391,207.504 497.081 C 206.491 496.931,206.290 496.969,206.836 497.207 C 208.373 497.877,197.051 498.975,192.234 498.623 C 187.355 498.267,182.813 497.599,182.813 497.238 C 182.813 497.052,182.562 496.996,182.257 497.113 C 181.145 497.539,171.340 494.690,171.733 494.054 C 171.912 493.764,171.770 493.707,171.311 493.883 C 168.556 494.940,145.498 480.428,146.740 478.419 C 146.880 478.191,146.821 478.113,146.607 478.245 C 146.099 478.558,143.644 476.027,144.036 475.595 C 144.201 475.414,144.145 475.374,143.912 475.506 C 143.066 475.988,137.288 469.050,134.359 464.035 C 128.950 454.774,126.032 445.907,125.049 435.742 C 124.688 432.010,124.532 356.692,124.884 356.122 C 125.135 355.715,125.934 356.480,138.622 369.277 M100.707 432.617 C 100.795 433.369,100.935 433.984,101.019 433.984 C 101.103 433.984,101.172 433.369,101.172 432.617 C 101.172 431.865,101.031 431.250,100.860 431.250 C 100.688 431.250,100.619 431.865,100.707 432.617 M156.137 434.765 C 156.025 435.195,156.092 435.645,156.287 435.765 C 156.481 435.885,156.641 435.534,156.641 434.984 C 156.641 433.787,156.418 433.690,156.137 434.765 M194.835 521.771 C 195.753 521.853,197.160 521.852,197.960 521.768 C 198.760 521.684,198.008 521.617,196.289 521.618 C 194.570 521.620,193.916 521.688,194.835 521.771 " stroke="none" fill="#040404" fill-rule="evenodd"></path><path id="path1" d="" stroke="none" fill="#080404" fill-rule="evenodd"></path><path id="path2" d="" stroke="none" fill="#080404" fill-rule="evenodd"></path><path id="path3" d="" stroke="none" fill="#080404" fill-rule="evenodd"></path><path id="path4" d="" stroke="none" fill="#080404" fill-rule="evenodd"></path></g></svg>