<svg id="svg" version="1.1" xmlns="http://www.w3.org/2000/svg" xmlns:xlink="http://www.w3.org/1999/xlink" width="400" height="600" viewBox="0, 0, 400,600"><g id="svgg"><path id="path0" d="M190.234 123.507 C 186.904 123.652,182.010 124.136,179.359 124.582 C 176.707 125.028,174.378 125.294,174.183 125.173 C 173.988 125.053,173.828 125.112,173.828 125.305 C 173.828 125.499,172.817 125.883,171.582 126.159 C 166.340 127.331,154.767 131.837,149.320 134.826 C 147.764 135.680,146.287 136.252,146.037 136.098 C 145.761 135.927,145.687 135.987,145.849 136.248 C 145.997 136.487,145.718 136.890,145.226 137.151 C 144.736 137.410,143.154 138.399,141.709 139.348 C 140.214 140.330,138.883 140.951,138.621 140.789 C 138.361 140.628,138.264 140.671,138.398 140.889 C 138.529 141.100,137.738 141.958,136.641 142.794 C 135.544 143.631,134.454 144.502,134.218 144.729 C 133.133 145.776,131.001 147.058,130.470 146.982 C 130.070 146.924,130.044 146.968,130.388 147.120 C 130.912 147.350,121.952 156.924,121.387 156.737 C 121.226 156.684,121.138 156.799,121.191 156.993 C 121.354 157.577,116.713 163.276,116.289 163.013 C 116.070 162.878,116.015 162.964,116.164 163.205 C 116.556 163.840,114.626 166.950,114.058 166.599 C 113.917 166.512,113.798 166.653,113.794 166.912 C 113.790 167.171,112.782 168.965,111.555 170.898 C 106.653 178.621,100.064 193.454,98.627 200.000 C 98.364 201.200,98.285 201.271,97.986 200.586 C 97.718 199.972,97.689 200.037,97.855 200.885 C 97.970 201.480,97.810 202.974,97.498 204.206 C 94.793 214.885,94.545 220.492,94.535 271.236 L 94.525 316.406 111.227 316.413 C 228.755 316.462,293.091 316.414,293.227 316.278 C 293.389 316.116,293.507 262.690,293.347 261.914 C 293.303 261.699,293.307 261.348,293.356 261.133 C 293.405 260.918,293.410 253.184,293.368 243.945 C 293.326 234.707,293.300 226.797,293.312 226.367 C 293.336 225.472,292.302 213.872,291.989 211.523 C 291.261 206.065,288.934 196.092,287.164 190.842 C 286.516 188.920,286.073 187.206,286.180 187.033 C 286.287 186.860,286.208 186.719,286.006 186.719 C 285.803 186.719,285.236 185.708,284.745 184.473 C 282.499 178.820,277.698 170.147,274.167 165.361 C 273.175 164.018,272.836 163.275,273.154 163.146 C 273.447 163.028,273.386 162.940,272.996 162.921 C 272.645 162.905,271.918 162.319,271.379 161.621 C 270.841 160.923,269.941 159.824,269.380 159.180 C 268.405 158.059,268.199 157.616,268.323 156.905 C 268.354 156.727,268.225 156.678,268.037 156.794 C 267.638 157.040,261.081 150.004,261.240 149.501 C 261.299 149.314,261.168 149.272,260.948 149.407 C 260.729 149.543,259.172 148.441,257.490 146.959 C 255.807 145.476,253.880 143.856,253.207 143.359 C 252.534 142.861,252.092 142.279,252.224 142.065 C 252.356 141.851,252.270 141.796,252.032 141.943 C 251.537 142.250,247.796 139.524,247.959 138.975 C 248.018 138.777,247.882 138.728,247.656 138.867 C 247.431 139.006,246.141 138.422,244.790 137.569 C 238.838 133.810,227.020 128.303,223.344 127.577 C 221.582 127.228,219.293 126.228,220.192 126.199 C 221.875 126.145,221.373 125.585,219.591 125.528 C 218.210 125.484,217.961 125.556,218.555 125.829 C 219.226 126.138,219.199 126.160,218.359 125.990 C 217.822 125.881,217.119 125.787,216.797 125.781 C 216.276 125.771,216.276 125.722,216.797 125.348 C 217.277 125.003,217.246 124.971,216.631 125.172 C 215.816 125.439,210.156 124.608,210.156 124.221 C 210.156 124.091,209.541 124.057,208.789 124.145 C 208.037 124.232,207.422 124.153,207.422 123.969 C 207.421 123.784,206.411 123.635,205.175 123.638 C 203.940 123.641,201.436 123.554,199.609 123.443 C 197.783 123.333,193.564 123.361,190.234 123.507 M169.140 126.025 L 168.164 126.595 169.141 126.335 C 170.229 126.045,170.522 125.860,170.279 125.618 C 170.190 125.528,169.677 125.711,169.140 126.025 M145.285 167.136 C 145.500 167.538,145.550 168.005,145.396 168.175 C 145.243 168.345,145.321 168.368,145.571 168.225 C 146.290 167.814,150.407 172.730,150.208 173.763 C 150.118 174.228,150.229 174.609,150.455 174.609 C 150.680 174.609,150.757 174.302,150.625 173.926 C 150.494 173.550,151.085 174.033,151.941 175.000 C 152.826 176.001,153.407 177.005,153.290 177.332 C 153.176 177.648,153.211 177.779,153.366 177.624 C 153.711 177.279,155.078 178.458,155.078 179.102 C 155.078 179.654,153.733 180.947,153.451 180.665 C 153.343 180.557,153.255 180.702,153.255 180.988 C 153.255 181.791,149.150 186.723,148.709 186.450 C 148.492 186.316,148.437 186.402,148.586 186.644 C 149.041 187.379,146.143 191.371,145.277 191.204 C 144.867 191.125,144.531 191.245,144.531 191.470 C 144.531 191.696,144.795 191.779,145.117 191.656 C 145.891 191.359,145.856 191.655,144.971 192.908 C 140.317 199.495,135.960 213.401,134.739 225.566 C 134.250 230.430,134.418 250.349,134.958 251.660 C 135.221 252.298,134.696 252.344,127.038 252.344 L 118.837 252.344 118.606 251.074 C 116.976 242.109,117.750 221.640,120.126 210.899 C 121.545 204.484,125.160 193.952,125.807 194.352 C 126.003 194.473,126.065 194.317,125.946 194.006 C 125.577 193.044,131.424 182.242,132.091 182.654 C 132.268 182.764,132.336 182.624,132.243 182.345 C 132.024 181.692,134.889 177.509,135.470 177.632 C 135.712 177.683,135.821 177.496,135.714 177.216 C 135.475 176.592,143.831 166.406,144.582 166.406 C 144.754 166.406,145.070 166.735,145.285 167.136 M104.632 330.095 C 100.685 330.741,97.856 332.885,96.014 336.627 L 94.727 339.241 94.605 394.913 C 94.452 465.164,94.601 467.862,99.452 482.510 C 100.215 484.814,100.711 486.907,100.555 487.160 C 100.386 487.433,100.437 487.517,100.680 487.367 C 101.200 487.046,101.607 488.065,101.318 488.965 C 101.147 489.496,101.184 489.528,101.483 489.109 C 101.789 488.680,101.927 488.760,102.158 489.499 C 102.317 490.011,102.865 491.299,103.374 492.362 C 103.903 493.464,104.205 494.639,104.078 495.097 C 103.932 495.622,103.973 495.729,104.198 495.408 C 104.442 495.059,104.803 495.396,105.450 496.580 C 105.950 497.494,106.720 498.845,107.161 499.581 C 107.601 500.317,107.752 500.790,107.496 500.632 C 107.209 500.454,107.031 500.589,107.031 500.986 C 107.031 501.339,107.251 501.551,107.520 501.457 C 108.097 501.254,110.287 504.550,109.944 505.106 C 109.814 505.316,109.916 505.440,110.171 505.381 C 110.731 505.251,113.397 508.871,113.098 509.355 C 112.776 509.876,113.311 510.965,113.755 510.691 C 113.996 510.542,113.948 510.327,113.627 510.129 C 113.342 509.952,113.203 509.714,113.319 509.598 C 113.434 509.483,114.867 511.011,116.503 512.995 C 118.139 514.979,120.185 517.289,121.051 518.130 C 121.916 518.970,122.515 519.849,122.382 520.083 C 122.249 520.317,122.284 520.378,122.460 520.218 C 122.897 519.822,123.881 520.692,123.568 521.198 C 123.430 521.422,123.501 521.491,123.727 521.352 C 123.953 521.212,125.639 522.384,127.474 523.956 C 132.667 528.405,139.920 533.260,146.413 536.631 C 149.676 538.325,152.213 539.858,152.052 540.036 C 151.890 540.214,151.959 540.245,152.204 540.105 C 152.449 539.965,154.822 540.718,157.477 541.780 C 192.959 555.967,231.400 549.751,261.088 525.026 C 262.782 523.615,264.334 522.509,264.535 522.568 C 264.737 522.627,264.808 522.523,264.693 522.337 C 264.466 521.971,267.071 519.266,267.478 519.444 C 267.613 519.504,267.768 519.258,267.821 518.898 C 267.873 518.538,268.692 517.435,269.640 516.446 C 270.587 515.457,272.183 513.594,273.184 512.305 C 274.186 511.016,275.199 509.729,275.434 509.446 C 281.318 502.364,288.453 487.159,290.837 476.620 C 291.588 473.302,291.508 473.710,292.156 469.922 C 292.432 468.311,292.845 466.113,293.073 465.039 C 293.804 461.591,293.928 341.032,293.203 338.558 C 292.883 337.467,292.727 336.404,292.855 336.196 C 292.984 335.987,292.919 335.922,292.710 336.051 C 292.502 336.180,292.021 335.761,291.642 335.119 C 289.819 332.033,285.801 330.006,281.547 330.027 C 276.783 330.049,274.506 331.378,267.451 338.251 C 265.118 340.523,263.050 342.339,262.855 342.285 C 262.660 342.231,262.544 342.351,262.598 342.550 C 262.736 343.066,207.778 398.072,207.374 397.822 C 207.190 397.709,207.122 397.845,207.222 398.124 C 207.324 398.409,204.520 401.510,200.840 405.180 L 194.276 411.728 192.548 409.956 C 191.598 408.982,190.864 408.013,190.918 407.803 C 190.972 407.594,190.846 407.466,190.638 407.520 C 190.094 407.660,158.563 376.147,158.824 375.724 C 158.944 375.530,158.867 375.420,158.652 375.479 C 158.437 375.538,148.616 365.995,136.826 354.273 C 112.712 330.296,113.370 330.837,107.227 329.916 C 106.797 329.852,105.629 329.932,104.632 330.095 M125.193 374.420 C 127.931 377.323,129.842 379.592,129.441 379.461 C 128.860 379.272,128.827 379.305,129.278 379.625 C 129.590 379.846,129.955 379.959,130.088 379.876 C 130.468 379.642,135.976 385.341,136.085 386.081 C 136.138 386.443,136.347 386.743,136.548 386.746 C 137.186 386.755,139.822 389.563,139.572 389.968 C 139.440 390.181,139.502 390.250,139.710 390.122 C 139.917 389.994,142.844 392.776,146.215 396.304 L 152.344 402.719 152.344 430.504 L 152.344 458.289 150.466 460.344 C 145.491 465.787,143.345 473.865,145.117 480.469 C 145.808 483.042,145.796 482.916,145.313 482.617 C 145.098 482.484,144.922 482.562,144.922 482.789 C 144.922 483.017,145.142 483.204,145.410 483.204 C 145.679 483.205,146.426 484.215,147.070 485.448 C 155.113 500.844,177.070 499.004,182.485 482.480 C 183.314 479.950,183.862 471.094,183.190 471.094 C 183.050 471.094,182.737 470.431,182.495 469.620 C 181.561 466.503,177.395 460.841,174.771 459.122 L 173.828 458.504 173.828 441.143 C 173.828 430.197,173.966 423.867,174.202 424.013 C 174.407 424.140,174.478 424.546,174.360 424.915 C 174.189 425.449,174.225 425.474,174.536 425.036 C 174.948 424.457,183.008 432.347,183.008 433.330 C 183.008 433.583,183.213 433.789,183.463 433.789 C 184.267 433.789,186.360 435.569,186.083 436.018 C 185.923 436.277,185.996 436.338,186.267 436.171 C 186.822 435.827,188.388 436.861,187.986 437.305 C 187.826 437.481,187.883 437.519,188.112 437.388 C 188.341 437.258,189.291 437.414,190.223 437.735 C 196.380 439.856,200.383 438.185,208.322 430.178 C 211.287 427.187,213.968 424.740,214.279 424.740 C 214.763 424.740,214.844 427.111,214.844 441.289 L 214.844 457.838 212.009 460.657 C 205.262 467.367,203.434 477.586,207.637 485.105 C 208.716 487.036,208.784 487.273,208.143 486.877 C 207.861 486.703,207.798 486.770,207.974 487.055 C 208.130 487.307,208.399 487.425,208.572 487.318 C 208.746 487.211,209.354 487.796,209.923 488.618 C 211.098 490.312,212.172 491.310,214.432 492.806 C 215.296 493.378,215.909 493.998,215.794 494.184 C 215.679 494.370,215.886 494.407,216.255 494.265 C 216.746 494.077,216.839 494.146,216.605 494.525 C 216.413 494.836,216.438 494.948,216.668 494.806 C 216.878 494.677,218.151 494.913,219.497 495.332 C 238.456 501.233,252.156 475.910,238.079 460.988 L 235.580 458.338 235.558 430.634 L 235.536 402.930 241.517 396.959 C 244.807 393.675,247.650 391.126,247.835 391.295 C 248.020 391.463,248.058 391.402,247.918 391.158 C 247.645 390.679,248.537 389.725,248.962 390.042 C 249.103 390.148,249.130 390.117,249.023 389.973 C 248.715 389.564,250.057 388.270,250.503 388.546 C 250.723 388.682,250.801 388.629,250.677 388.428 C 250.553 388.228,254.203 384.202,258.787 379.481 C 266.510 371.529,267.141 370.971,267.371 371.886 C 267.823 373.685,267.425 459.882,266.964 460.036 C 266.733 460.112,266.615 460.658,266.702 461.249 C 266.890 462.532,265.247 470.073,263.830 474.426 C 261.996 480.060,257.305 489.278,256.519 488.792 C 256.302 488.658,256.251 488.747,256.403 488.994 C 257.159 490.218,245.176 505.132,244.013 504.413 C 243.802 504.283,243.737 504.350,243.868 504.562 C 244.305 505.270,238.906 509.957,238.175 509.505 C 237.952 509.367,237.884 509.439,238.024 509.665 C 238.375 510.234,233.020 513.846,232.397 513.461 C 232.095 513.275,232.009 513.321,232.171 513.582 C 232.505 514.122,226.734 517.339,226.115 516.957 C 225.853 516.795,225.765 516.845,225.908 517.076 C 226.437 517.932,215.443 521.799,208.789 523.099 C 197.348 525.333,184.427 524.791,174.209 521.650 C 172.388 521.090,170.603 520.543,170.242 520.434 C 169.843 520.313,169.666 519.982,169.790 519.590 C 169.958 519.065,169.923 519.048,169.602 519.500 C 168.236 521.423,144.407 507.371,145.573 505.329 C 145.714 505.084,145.679 505.018,145.497 505.184 C 145.066 505.576,142.146 502.727,142.459 502.220 C 142.591 502.007,142.523 501.941,142.308 502.074 C 141.801 502.388,139.739 500.245,140.131 499.813 C 140.295 499.632,140.219 499.605,139.962 499.752 C 139.438 500.053,133.893 493.433,134.222 492.900 C 134.332 492.723,134.248 492.578,134.037 492.578 C 131.334 492.578,122.608 472.324,120.825 461.910 C 120.233 458.452,119.536 369.141,120.101 369.141 C 120.164 369.141,122.456 371.516,125.193 374.420 " stroke="none" fill="#fcfcfc" fill-rule="evenodd"></path><path id="path1" d="" stroke="none" fill="#fcf4fc" fill-rule="evenodd"></path><path id="path2" d="" stroke="none" fill="#100fcfc" fill-rule="evenodd"></path><path id="path3" d="" stroke="none" fill="#100fcfc" fill-rule="evenodd"></path><path id="path4" d="" stroke="none" fill="#100fcfc" fill-rule="evenodd"></path></g></svg>